<svg width="24" height="25" viewBox="0 0 24 25" fill="none" xmlns="http://www.w3.org/2000/svg">
<path d="M0 9.5H24V15.5H0V9.5Z" fill="#EC1C24"/>
<path d="M20.25 4.25H3.75C1.26488 4.25 0 6.09688 0 8.375V9.5H24V8.375C24 6.09688 22.7351 4.25 20.25 4.25Z" fill="#1B75BB"/>
<path d="M0 16.625C0 18.9031 1.26488 20.75 3.75 20.75H20.25C22.7351 20.75 24 18.9031 24 16.625V15.5H0V16.625Z" fill="#29B473"/>
<path fill-rule="evenodd" clip-rule="evenodd" d="M13.2559 13.7104C12.771 14.4641 11.7623 14.9415 10.7067 14.634C9.71104 14.3426 9.02704 13.3778 9.08441 12.3371C9.13916 11.2916 9.92366 10.4021 10.9444 10.2206C12.0255 10.0298 12.8929 10.6088 13.2649 11.2144C12.8243 10.7839 12.3135 10.5881 11.715 10.6575C11.2467 10.7115 10.8544 10.923 10.5484 11.28C9.94766 11.9786 9.96941 13.0275 10.5972 13.6875C10.9564 14.0663 11.3985 14.2635 11.9209 14.2684C12.4418 14.2721 12.8835 14.0749 13.2559 13.7104Z" fill="#E6E7E8"/>
<path d="M14.9363 12.731L15.5063 12.4565L14.9363 12.1805L15.1463 11.5854L14.5481 11.7942L14.2725 11.2246L13.9988 11.7942L13.4018 11.5854L13.6088 12.1805L13.041 12.4565L13.6088 12.731L13.4018 13.328L13.9988 13.1199L14.2725 13.688L14.5481 13.1199L15.1463 13.328L14.9363 12.731Z" fill="#E6E7E8"/>
</svg>
