<svg width="124" height="32" viewBox="0 0 124 32" fill="none" xmlns="http://www.w3.org/2000/svg">
<path d="M12.115 10.7064C11.7262 10.3166 11.0943 10.3166 10.7055 10.7064C10.3156 11.0963 10.3156 11.7272 10.7055 12.117L12.5383 13.9499C12.9282 14.3397 13.5591 14.3397 13.9489 13.9499C14.3377 13.56 14.3377 12.9292 13.9489 12.5393L12.115 10.7064Z" fill="#697FB4"/>
<path d="M12.8102 16.698C12.9904 16.5177 13.1025 16.2673 13.1025 15.9927C13.1025 15.4415 12.6561 14.995 12.1049 14.9961H9.51223C8.96206 14.9961 8.51458 15.4425 8.51563 15.9927C8.51563 16.5439 8.96206 16.9904 9.51223 16.9904L12.1049 16.9893C12.3805 16.9893 12.6299 16.8782 12.8102 16.698Z" fill="#697FB4"/>
<path d="M12.5383 18.0377L10.7055 19.8716C10.3156 20.2604 10.3156 20.8923 10.7055 21.2822C11.0943 21.671 11.7262 21.671 12.115 21.2822L13.9489 19.4482C14.3377 19.0584 14.3377 18.4275 13.9489 18.0377C13.5591 17.6489 12.9282 17.6489 12.5383 18.0377Z" fill="#697FB4"/>
<path d="M16.699 12.8102C16.8792 12.6299 16.9903 12.3805 16.9903 12.1049L16.9913 9.51223C16.9913 8.96206 16.5449 8.51562 15.9937 8.51562C15.4435 8.51562 14.9971 8.96206 14.9971 9.51223V12.1049C14.996 12.6551 15.4425 13.1025 15.9937 13.1025C16.2693 13.1025 16.5187 12.9904 16.699 12.8102Z" fill="#697FB4"/>
<path d="M19.448 13.9499L21.2819 12.1159C21.6707 11.7272 21.6707 11.0952 21.2819 10.7064C20.8921 10.3166 20.2612 10.3166 19.8714 10.7064L18.0385 12.5393C17.6486 12.9292 17.6486 13.56 18.0385 13.9499C18.4273 14.3387 19.0592 14.3387 19.448 13.9499Z" fill="#697FB4"/>
<path d="M29.5815 19.4078L26.8264 18.5024C27.6931 14.7727 26.6022 10.8743 23.8576 8.12967C19.5221 3.79322 12.4662 3.79322 8.1298 8.12967C3.79335 12.4661 3.79335 19.521 8.1298 23.8574C10.8744 26.6031 14.7728 27.694 18.5035 26.8263L19.4079 29.5814C14.6334 30.7844 9.60847 29.4168 6.08942 25.8978C0.628513 20.4369 0.628513 11.5512 6.08942 6.08929C11.5503 0.628382 20.437 0.628382 25.8979 6.08929C29.417 9.60833 30.7846 14.6333 29.5815 19.4078ZM15.0463 16.3048L17.8769 24.9211C14.8692 25.5593 11.7494 24.657 9.54035 22.4479C5.98148 18.8891 5.98148 13.098 9.54035 9.54022C13.0992 5.98135 18.8892 5.98135 22.448 9.53917C24.6571 11.7493 25.5594 14.8691 24.9212 17.8767L16.3049 15.0462C15.5305 14.7915 14.7917 15.5282 15.0463 16.3048ZM25.6213 22.3033C25.0617 22.6386 24.9694 23.4068 25.4274 23.8648L27.9393 26.3767L26.3768 27.9392L23.8649 25.4273C23.408 24.9693 22.6388 25.0615 22.3034 25.6211L20.9505 27.8858L17.5572 17.5571L27.8859 20.9504L25.6213 22.3033ZM27.3085 4.67874C21.07 -1.55975 10.9184 -1.55975 4.67887 4.67979C-1.55962 10.9183 -1.55962 21.0699 4.67887 27.3083C8.91891 31.5484 15.0715 33.048 20.7839 31.2581C21.4221 31.0359 21.3487 31.1082 23.3598 27.7422L25.6716 30.054C26.0614 30.4438 26.6923 30.4438 27.0821 30.054L30.0552 27.082C30.444 26.6921 30.444 26.0613 30.0552 25.6714L27.7423 23.3586C30.9742 21.4691 31.0549 21.4125 31.2582 20.7838C33.0481 15.0713 31.5485 8.91878 27.3085 4.67874Z" fill="#697FB4"/>
<path d="M39.3081 13.6994H43.2104V15.2445H39.3081V19.9986C39.3081 20.5136 39.3477 20.9428 39.4269 21.2862C39.5062 21.6163 39.625 21.8805 39.7835 22.0785C39.942 22.2634 40.1401 22.3955 40.3778 22.4747C40.6155 22.554 40.8928 22.5936 41.2097 22.5936C41.7644 22.5936 42.2068 22.5341 42.5369 22.4153C42.8803 22.2832 43.118 22.1908 43.25 22.138L43.6066 23.6632C43.4217 23.7557 43.0982 23.8679 42.636 24C42.1738 24.1453 41.6455 24.2179 41.0513 24.2179C40.3513 24.2179 39.7703 24.1321 39.3081 23.9604C38.8591 23.7755 38.4959 23.5048 38.2186 23.1482C37.9413 22.7917 37.7432 22.3559 37.6243 21.8408C37.5187 21.3126 37.4659 20.7051 37.4659 20.0184V10.8271L39.3081 10.5102V13.6994ZM49.041 22.6728C49.4768 22.6728 49.8598 22.6662 50.1899 22.653C50.5333 22.6266 50.8172 22.587 51.0417 22.5341V19.4638C50.9097 19.3977 50.6918 19.3449 50.388 19.3053C50.0975 19.2525 49.7409 19.2261 49.3184 19.2261C49.041 19.2261 48.7439 19.2459 48.427 19.2855C48.1232 19.3251 47.8393 19.4109 47.5752 19.543C47.3243 19.6619 47.113 19.8335 46.9413 20.058C46.7696 20.2693 46.6838 20.5533 46.6838 20.9098C46.6838 21.5701 46.8951 22.0323 47.3177 22.2964C47.7403 22.5474 48.3147 22.6728 49.041 22.6728ZM48.8826 13.4419C49.6221 13.4419 50.2428 13.5409 50.7446 13.739C51.2596 13.9239 51.669 14.1946 51.9727 14.5512C52.2897 14.8945 52.5142 15.3105 52.6462 15.7991C52.7783 16.2745 52.8443 16.8028 52.8443 17.3838V23.8217C52.6859 23.8481 52.4614 23.8877 52.1708 23.9406C51.8935 23.9802 51.5766 24.0198 51.22 24.0594C50.8634 24.099 50.4739 24.1321 50.0513 24.1585C49.6419 24.1981 49.2325 24.2179 48.8231 24.2179C48.2421 24.2179 47.7072 24.1585 47.2186 24.0396C46.73 23.9208 46.3074 23.7359 45.9509 23.485C45.5943 23.2209 45.317 22.8775 45.1189 22.4549C44.9208 22.0323 44.8217 21.5239 44.8217 20.9296C44.8217 20.3618 44.934 19.8732 45.1585 19.4638C45.3962 19.0544 45.7131 18.7242 46.1093 18.4733C46.5055 18.2224 46.9677 18.0375 47.4959 17.9187C48.0242 17.7998 48.5788 17.7404 49.1599 17.7404C49.3448 17.7404 49.5363 17.7536 49.7343 17.78C49.9324 17.7932 50.1173 17.8196 50.289 17.8593C50.4739 17.8857 50.6323 17.9121 50.7644 17.9385C50.8965 17.9649 50.9889 17.9847 51.0417 17.9979V17.4829C51.0417 17.1792 51.0087 16.882 50.9427 16.5915C50.8767 16.2878 50.7578 16.0236 50.5861 15.7991C50.4144 15.5614 50.1767 15.3765 49.873 15.2445C49.5825 15.0992 49.1995 15.0266 48.7241 15.0266C48.1166 15.0266 47.5818 15.0728 47.1196 15.1653C46.6706 15.2445 46.3338 15.3303 46.1093 15.4228L45.8914 13.8975C46.1291 13.7918 46.5253 13.6928 47.08 13.6004C47.6346 13.4947 48.2355 13.4419 48.8826 13.4419ZM63.055 18.8695C63.055 17.6678 62.7579 16.7434 62.1636 16.0963C61.5694 15.4492 60.777 15.1256 59.7866 15.1256C59.2319 15.1256 58.7961 15.1454 58.4792 15.1851C58.1754 15.2247 57.9311 15.2709 57.7463 15.3237V21.821C57.9708 22.0059 58.2943 22.1842 58.7169 22.3559C59.1395 22.5275 59.6017 22.6134 60.1035 22.6134C60.6317 22.6134 61.0807 22.5209 61.4505 22.3361C61.8335 22.138 62.1438 21.8738 62.3815 21.5437C62.6192 21.2003 62.7909 20.8042 62.8966 20.3552C63.0022 19.893 63.055 19.3977 63.055 18.8695ZM64.9765 18.8695C64.9765 19.6487 64.8708 20.3684 64.6595 21.0287C64.4615 21.689 64.1643 22.2568 63.7681 22.7322C63.372 23.2076 62.8833 23.5774 62.3023 23.8415C61.7344 24.1056 61.0807 24.2377 60.3412 24.2377C59.7469 24.2377 59.2187 24.1585 58.7565 24C58.3075 23.8415 57.9708 23.6897 57.7463 23.5444V27.6646H55.904V14.0163C56.3398 13.9107 56.8813 13.7984 57.5284 13.6796C58.1886 13.5475 58.948 13.4815 59.8064 13.4815C60.5987 13.4815 61.3118 13.607 61.9457 13.8579C62.5796 14.1088 63.1211 14.4653 63.5701 14.9275C64.0191 15.3898 64.3624 15.9576 64.6001 16.6311C64.851 17.2914 64.9765 18.0375 64.9765 18.8695ZM75.2348 13.7786C75.2348 14.254 75.1358 14.7163 74.9377 15.1653C74.7528 15.601 74.5019 16.0368 74.185 16.4726C73.868 16.8952 73.5115 17.3178 73.1153 17.7404C72.7191 18.1498 72.3229 18.5526 71.9268 18.9487C71.7023 19.1732 71.4381 19.4374 71.1344 19.7411C70.8439 20.0448 70.5665 20.3618 70.3024 20.6919C70.0383 21.0221 69.8138 21.339 69.6289 21.6427C69.4573 21.9465 69.3714 22.2106 69.3714 22.4351H75.6904V24H67.3707C67.3575 23.9208 67.3509 23.8415 67.3509 23.7623C67.3509 23.6831 67.3509 23.6104 67.3509 23.5444C67.3509 22.9237 67.45 22.3493 67.648 21.821C67.8593 21.2796 68.1301 20.7712 68.4602 20.2957C68.7904 19.8203 69.1601 19.3713 69.5695 18.9487C69.9789 18.5262 70.3817 18.1168 70.7778 17.7206C71.108 17.4037 71.4183 17.0933 71.7089 16.7896C72.0126 16.4726 72.2767 16.1623 72.5012 15.8586C72.7389 15.5416 72.9238 15.2181 73.0559 14.8879C73.2011 14.5578 73.2738 14.2078 73.2738 13.8381C73.2738 13.4419 73.2077 13.1051 73.0757 12.8278C72.9568 12.5505 72.7917 12.3194 72.5804 12.1345C72.3692 11.9496 72.1182 11.8176 71.8277 11.7383C71.5504 11.6459 71.2533 11.5997 70.9363 11.5997C70.5533 11.5997 70.2034 11.6525 69.8864 11.7581C69.5695 11.8638 69.2856 11.9892 69.0347 12.1345C68.7838 12.2666 68.5725 12.4118 68.4008 12.5703C68.2291 12.7156 68.097 12.8278 68.0046 12.907L67.0934 11.5997C67.2122 11.4676 67.3905 11.3091 67.6282 11.1242C67.8659 10.9262 68.1499 10.7413 68.48 10.5696C68.8102 10.3979 69.1799 10.2527 69.5893 10.1338C69.9987 10.015 70.4411 9.95552 70.9165 9.95552C72.3559 9.95552 73.4322 10.2923 74.1453 10.9658C74.8717 11.6261 75.2348 12.5637 75.2348 13.7786ZM78.1755 18.8695C78.1755 17.9583 78.3076 17.1659 78.5717 16.4924C78.8358 15.8057 79.1858 15.2379 79.6216 14.7889C80.0574 14.3399 80.5592 14.0031 81.127 13.7786C81.6949 13.5541 82.276 13.4419 82.8702 13.4419C84.2568 13.4419 85.3199 13.8777 86.0594 14.7493C86.799 15.6076 87.1687 16.9216 87.1687 18.6912C87.1687 18.7705 87.1687 18.8761 87.1687 19.0082C87.1687 19.127 87.1621 19.2393 87.1489 19.3449H80.097C80.1762 20.4146 80.4866 21.2268 81.028 21.7814C81.5694 22.3361 82.4146 22.6134 83.5635 22.6134C84.2106 22.6134 84.7521 22.5606 85.1879 22.4549C85.6369 22.3361 85.9736 22.2238 86.1981 22.1182L86.4556 23.6632C86.2311 23.7821 85.8349 23.9076 85.2671 24.0396C84.7124 24.1717 84.0786 24.2377 83.3654 24.2377C82.4674 24.2377 81.6883 24.1056 81.028 23.8415C80.3809 23.5642 79.8461 23.1878 79.4235 22.7124C79.0009 22.237 78.6839 21.6758 78.4727 21.0287C78.2746 20.3684 78.1755 19.6487 78.1755 18.8695ZM85.2473 17.8593C85.2605 17.0273 85.0492 16.3472 84.6134 15.8189C84.1908 15.2775 83.6031 15.0068 82.8504 15.0068C82.4278 15.0068 82.0515 15.0926 81.7213 15.2643C81.4044 15.4228 81.1336 15.6341 80.9091 15.8982C80.6846 16.1623 80.5064 16.466 80.3743 16.8094C80.2554 17.1527 80.1762 17.5027 80.1366 17.8593H85.2473ZM93.3014 22.6728C93.7372 22.6728 94.1202 22.6662 94.4503 22.653C94.7937 22.6266 95.0776 22.587 95.3021 22.5341V19.4638C95.1701 19.3977 94.9522 19.3449 94.6484 19.3053C94.3579 19.2525 94.0013 19.2261 93.5788 19.2261C93.3014 19.2261 93.0043 19.2459 92.6874 19.2855C92.3836 19.3251 92.0997 19.4109 91.8356 19.543C91.5847 19.6619 91.3734 19.8335 91.2017 20.058C91.03 20.2693 90.9442 20.5533 90.9442 20.9098C90.9442 21.5701 91.1555 22.0323 91.5781 22.2964C92.0007 22.5474 92.5751 22.6728 93.3014 22.6728ZM93.143 13.4419C93.8825 13.4419 94.5032 13.5409 95.005 13.739C95.52 13.9239 95.9294 14.1946 96.2331 14.5512C96.5501 14.8945 96.7746 15.3105 96.9066 15.7991C97.0387 16.2745 97.1047 16.8028 97.1047 17.3838V23.8217C96.9463 23.8481 96.7218 23.8877 96.4312 23.9406C96.1539 23.9802 95.837 24.0198 95.4804 24.0594C95.1239 24.099 94.7343 24.1321 94.3117 24.1585C93.9023 24.1981 93.4929 24.2179 93.0835 24.2179C92.5025 24.2179 91.9676 24.1585 91.479 24.0396C90.9904 23.9208 90.5678 23.7359 90.2113 23.485C89.8547 23.2209 89.5774 22.8775 89.3793 22.4549C89.1812 22.0323 89.0822 21.5239 89.0822 20.9296C89.0822 20.3618 89.1944 19.8732 89.4189 19.4638C89.6566 19.0544 89.9735 18.7242 90.3697 18.4733C90.7659 18.2224 91.2281 18.0375 91.7563 17.9187C92.2846 17.7998 92.8392 17.7404 93.4203 17.7404C93.6052 17.7404 93.7967 17.7536 93.9947 17.78C94.1928 17.7932 94.3777 17.8196 94.5494 17.8593C94.7343 17.8857 94.8927 17.9121 95.0248 17.9385C95.1569 17.9649 95.2493 17.9847 95.3021 17.9979V17.4829C95.3021 17.1792 95.2691 16.882 95.2031 16.5915C95.1371 16.2878 95.0182 16.0236 94.8465 15.7991C94.6748 15.5614 94.4371 15.3765 94.1334 15.2445C93.8429 15.0992 93.4599 15.0266 92.9845 15.0266C92.377 15.0266 91.8422 15.0728 91.38 15.1653C90.931 15.2445 90.5942 15.3303 90.3697 15.4228L90.1518 13.8975C90.3895 13.7918 90.7857 13.6928 91.3404 13.6004C91.895 13.4947 92.4959 13.4419 93.143 13.4419ZM103.968 13.4815C104.126 13.4815 104.304 13.4947 104.503 13.5211C104.714 13.5343 104.919 13.5607 105.117 13.6004C105.315 13.6268 105.493 13.6598 105.651 13.6994C105.823 13.7258 105.949 13.7522 106.028 13.7786L105.711 15.3831C105.566 15.3303 105.321 15.2709 104.978 15.2049C104.648 15.1256 104.219 15.086 103.69 15.086C103.347 15.086 103.004 15.1256 102.66 15.2049C102.33 15.2709 102.112 15.3171 102.007 15.3435V24H100.164V14.1352C100.6 13.9767 101.142 13.8315 101.789 13.6994C102.436 13.5541 103.162 13.4815 103.968 13.4815ZM107.806 13.9965C108.228 13.8909 108.789 13.7786 109.489 13.6598C110.189 13.5409 110.995 13.4815 111.906 13.4815C112.725 13.4815 113.405 13.6004 113.946 13.8381C114.488 14.0626 114.917 14.3861 115.234 14.8087C115.564 15.2181 115.795 15.7133 115.927 16.2944C116.059 16.8754 116.125 17.5159 116.125 18.2158V24H114.283V18.612C114.283 17.9781 114.237 17.4367 114.144 16.9877C114.065 16.5387 113.926 16.1755 113.728 15.8982C113.53 15.6209 113.266 15.4228 112.936 15.3039C112.606 15.1719 112.197 15.1058 111.708 15.1058C111.51 15.1058 111.305 15.1124 111.094 15.1256C110.883 15.1388 110.678 15.1586 110.48 15.1851C110.295 15.1983 110.123 15.2181 109.965 15.2445C109.819 15.2709 109.714 15.2907 109.648 15.3039V24H107.806V13.9965Z" fill="#697FB4"/>
</svg>
